<svg xmlns="http://www.w3.org/2000/svg" xmlns:xlink="http://www.w3.org/1999/xlink" width="130" height="75" viewBox="0 0 130 16"><defs><path id="xq61a" d="M365.77 5363.2h11.15l-1.82 2.8h-9.54a7.98 7.98 0 0 1-8.05-7.92 8 8 0 0 1 8.05-7.93h11.12l-1.84 2.8h-9.07a5.2 5.2 0 0 0-5.01 3.73h15.05l-1.83 2.8h-13.22a5.19 5.19 0 0 0 5 3.72zm-37.83 2.8a7.99 7.99 0 0 1-8.06-7.92 8 8 0 0 1 8.06-7.93h11.1l-1.8 2.8h-9.1a5.18 5.18 0 0 0-5.21 5.13 5.17 5.17 0 0 0 5.21 5.12h11.17l-1.83 2.8zm-58.75-2.8c2.87 0 5.2-2.3 5.2-5.12a5.17 5.17 0 0 0-5.2-5.13h-8.94c-2.87 0-5.2 2.3-5.2 5.13a5.16 5.16 0 0 0 5.2 5.11zm-9.15 2.8a7.98 7.98 0 0 1-8.04-7.92 8 8 0 0 1 8.04-7.93h9.35a7.99 7.99 0 0 1 8.05 7.93c0 4.38-3.6 7.92-8.05 7.92zm31.17-5.14l6.2 5.14h-4.48l-9.24-7.93 8.72.01c1.44 0 2.6-1.15 2.6-2.57a2.58 2.58 0 0 0-2.6-2.56h-10.23V5366h-3.1v-15.85h13.54c3 0 5.44 2.4 5.44 5.36a5.4 5.4 0 0 1-5.44 5.35zm67 2.34l-1.81 2.8h-14.11a1.6 1.6 0 0 1-1.13-.46c-.3-.29-.45-.67-.45-1.06v-14.33h3.1v13.05zm-52.28-2.8h8.26l-4.36-6.9-8.02 12.5h-3.65l9.75-15.03c.43-.6 1.13-.97 1.92-.97.75 0 1.46.35 1.87.95l9.79 15.05h-3.65l-1.72-2.8h-8.36z"/><path id="xq61b" d="M380.3 5351.56c.04-.05.05-.1.05-.19a.3.3 0 0 0-.15-.24c-.1-.04-.18-.04-.38-.04h-.12v.6h.26c.13-.01.26-.01.34-.13zm-.48-.81c.29 0 .4 0 .54.06.36.12.4.45.4.58 0 .02 0 .09-.02.17a.53.53 0 0 1-.25.35l-.1.05.48.86h-.46l-.42-.8h-.29v.8h-.4v-2.07zm-1.67 1.1a1.84 1.84 0 1 1 3.69 0 1.84 1.84 0 0 1-3.69 0zm1.84 1.45a1.45 1.45 0 1 0 0-2.9c-.8 0-1.44.64-1.44 1.44 0 .81.64 1.46 1.44 1.46z"/></defs><g><g transform="translate(-252 -5350)"><g><use fill="#f80000" xlink:href="#xq61a"/></g><g><use fill="#f80000" xlink:href="#xq61b"/></g></g></g></svg>