<svg xmlns="http://www.w3.org/2000/svg" xmlns:xlink="http://www.w3.org/1999/xlink" width="137" height="75" viewBox="0 0 137 30"><defs><path id="a" d="M210 5351.25a1.5 1.5 0 1 1 0-3 1.5 1.5 0 0 1 0 3zm0-2.8c-.72 0-1.26.58-1.26 1.3a1.26 1.26 0 1 0 2.53 0c0-.72-.54-1.3-1.26-1.3zm-.31 2.2h-.25v-1.79h.69c.4 0 .57.17.57.5 0 .3-.2.45-.4.5l.49.78h-.27l-.49-.79h-.34zm.27-1c.24 0 .5.01.5-.3 0-.25-.2-.29-.39-.29h-.39v.59z"/><path id="b" d="M138 5358c0-6.18 4.11-9.73 9.99-9.73s9.98 3.56 9.98 9.74-4.1 9.74-9.98 9.74c-5.88 0-9.99-3.56-9.99-9.74m17.4 0c0-6.07-3.24-8.75-7.41-8.75s-7.36 2.68-7.36 8.75c0 6 3.2 8.75 7.36 8.75 4.17 0 7.42-2.74 7.42-8.75m19.58 9.74h-.4c-4.05-4.9-8.9-10.09-13.47-15.05 0 1-.06 2.63-.06 5.54 0 2.34.11 8.06.23 9.16a4.7 4.7 0 0 0-.92-.12c-.34 0-.68.06-1.02.12.22-1.29.57-8.29.57-11.84 0-3.45 0-6.07-.06-7.3h.4c4.34 4.79 10.27 11.38 13.53 14.7 0-4.84 0-10.15-.23-14.35.28.06.63.12.91.12.29 0 .51-.07.86-.12-.17 1.57-.46 7-.46 9.1 0 2.8.06 8.8.12 10.03m1.42-9.74c0-6.19 4.1-9.74 9.99-9.74 5.87 0 9.98 3.56 9.98 9.74s-4.11 9.74-9.99 9.74-9.99-3.56-9.99-9.74m17.35 0c0-6.07-3.2-8.75-7.36-8.75s-7.36 2.68-7.36 8.74c0 6 3.2 8.74 7.36 8.74 4.17 0 7.36-2.73 7.36-8.74zm3.56 5.77h-.02m.02 0h.33a4.58 4.58 0 0 0 4.22 2.8c2.34 0 3.77-1.76 3.77-3.91 0-5.02-8.4-2.86-8.4-9.28 0-3.03 2.3-5.13 5.83-5.13 1.66 0 2.86.4 3.94 1.22a8.64 8.64 0 0 0-.74 2.34h-.28c-.4-1.05-1.2-2.57-3.2-2.57s-3.42 1.4-3.42 3.38c0 5.08 8.39 2.98 8.39 8.99 0 3.32-2.45 6.12-6.56 6.12a6.57 6.57 0 0 1-4.4-1.57c.35-.82.4-1.35.52-2.39z"/><path id="c" d="M111.23 5360.75v-4.66c0-2.33-.12-4.66-.23-6.93.46.06.85.12 1.3.12.4 0 .8-.06 1.26-.12-.12 2.27-.17 4.6-.17 6.93v1.51c0 .12.05.18.11.18.12 0 .17-.06.4-.23a92.26 92.26 0 0 0 7.9-8.4c.33.06.67.13 1.07.13s.85-.06 1.25-.12c-2.38 2.15-6.53 6.11-8.4 8.38 2.84 3.26 5.73 6.7 8.68 10.14-.5-.06-1.02-.12-1.59-.12-.45 0-.96.06-1.41.12-2.5-3.15-6.47-8.1-7.61-9.27-.12-.11-.23-.17-.29-.17-.05 0-.1.05-.1.11v2.39c0 2.27.05 4.66.16 6.93-.45-.06-.85-.12-1.25-.12-.45 0-.85.06-1.3.12.1-2.28.22-4.67.22-6.94zm14.36-.06v-4.64c0-2.39-.11-4.72-.23-7.05 1.02.06 2.04.12 3 .12 1.03 0 2.05-.12 3.07-.12 2.95 0 5.5 1.05 5.5 4.25 0 3.55-3.45 4.95-5.44 5.24 1.3 1.63 5.73 7.52 7.26 9.26-.5-.06-1.08-.12-1.59-.12s-1.02.06-1.53.12a81.12 81.12 0 0 0-6.87-9.04h-1.02v1.98c0 2.33.1 4.72.22 7.05-.45-.06-.9-.12-1.3-.12-.46 0-.85.06-1.3.12.1-2.33.22-4.72.22-7.05zm2.15-3.15c.5.11 1.07.17 1.75.17 2.21 0 5.1-.93 5.1-4.19 0-2.84-2.32-3.54-4.13-3.54-1.2 0-1.99.05-2.56.11-.05 1.98-.16 3.96-.16 5.94z"/><path id="d" d="M105 5358.5c0 3.84-1.32 7.38-3.79 10l-5.5-7.73a5.6 5.6 0 0 0-2.93-2.27c1.5-.46 2.41-1.63 2.93-2.27l5.5-7.79a14.46 14.46 0 0 1 3.79 10.06m-29.77-2.9h12.85c.28 0 3.67.17 5.05-1.8 1.43-1.99 5.5-7.8 5.5-7.8.29.17.29.23.52.4 0 0-6.82 9.66-6.82 9.72-1.21 1.62-3.16 2.03-4.7 2.03H75c0-.7.06-1.69.23-2.56"/><path id="e" d="M79.01 5348.04h6.18c1.09 0 1.72-1.01 2.12-1.4 0 .05 2.69-3.64 2.69-3.64-3.72.05-7.9 1.51-10.99 5.04m-2.46 3.75h10.99c2.86 0 3.38-.79 4.12-1.57.05 0 4.46-6.1 4.46-6.1s.29.11.63.28c0 0-2.58 3.58-5.9 8.06a4.06 4.06 0 0 1-3.37 1.79H75.75c.23-.95.57-1.8.8-2.46"/><path id="f" d="M75.23 5360.56H88c.28 0 3.65-.11 5.02 1.78 1.42 1.94 5.47 7.66 5.47 7.66.28-.17.28-.23.51-.4 0 0-6.78-9.5-6.78-9.55-1.2-1.6-3.14-2-4.68-2H75c0 .69.06 1.66.23 2.52m2.85-11.96h8.38c2 .05 3.19-1.66 3.19-1.66l2.85-3.95.74.12s-4.22 5.89-4.27 5.94c-.92 1.43-1.88 1.95-3.08 2h-9.35c.17-.45.85-1.6 1.54-2.45"/><path id="g" d="M79.01 5367.96h6.18c1.09 0 1.72 1.01 2.12 1.4L90 5373a14.87 14.87 0 0 1-10.99-5.03m-2.46-3.76h10.99c2.86 0 3.38.78 4.12 1.56.05 0 4.46 6.1 4.46 6.1s.29-.1.63-.28c0 0-2.58-3.58-5.9-8.05a4.06 4.06 0 0 0-3.37-1.79c0 .06-11.73 0-11.73 0 .23.96.57 1.8.8 2.46"/><path id="h" d="M78.02 5367.27h8.28c1.97 0 3.15 1.7 3.15 1.7l2.82 4.03.73-.12-4.22-6.08c-.9-1.47-1.86-1.99-3.04-2.05H76.5c.34.7.84 1.64 1.52 2.52"/></defs><use fill="#231f20" xlink:href="#a" transform="translate(-75 -5343)"/><use fill="#100f0d" xlink:href="#b" transform="translate(-75 -5343)"/><use fill="#100f0d" xlink:href="#c" transform="translate(-75 -5343)"/><use fill="#f03b25" xlink:href="#d" transform="translate(-75 -5343)"/><use fill="#f03b25" xlink:href="#e" transform="translate(-75 -5343)"/><use fill="#f03b25" xlink:href="#f" transform="translate(-75 -5343)"/><use fill="#f03b25" xlink:href="#g" transform="translate(-75 -5343)"/><use fill="#f03b25" xlink:href="#h" transform="translate(-75 -5343)"/></svg>