<svg xmlns="http://www.w3.org/2000/svg" xmlns:xlink="http://www.w3.org/1999/xlink" width="64" height="29" viewBox="0 0 64 29"><defs><path id="a" d="M48 39.46v-3.17c0-.28.14-.42.41-.42h3.76v-6.1c0-.27.14-.41.42-.41h3.35c.27 0 .41.14.41.41v6.1h6.78c.27 0 .41.14.41.42v3.17c0 .28-.14.42-.41.42h-6.78v10.25c0 2.32 1.07 3.48 3.21 3.48 1.34 0 2.61-.22 3.84-.67a.88.88 0 0 1 .27-.04c.22 0 .33.13.33.4v2.88c0 .4-.11.64-.33.72-1.28.49-2.77.72-4.48.71-2.17 0-3.88-.59-5.14-1.76-1.26-1.17-1.88-2.83-1.88-4.97v-11H48.4c-.27 0-.41-.14-.41-.42"/><path id="b" d="M70.3 38.34c-2.02 2.13-3.03 4.85-3.03 8.18s1 6.05 3.02 8.17c2.02 2.11 4.63 3.17 7.85 3.17 2.65 0 4.84-.7 6.58-2.11a8.91 8.91 0 0 0 3.27-5.85c0-.17-.1-.26-.3-.26h-3.46c-.32 0-.53.13-.6.38a5.02 5.02 0 0 1-2.09 2.8c-.98.63-2.11.94-3.4.94a6.05 6.05 0 0 1-4.68-1.88c-1.16-1.26-1.74-3.05-1.74-5.37 0-2.32.58-4.1 1.74-5.36a6.05 6.05 0 0 1 4.68-1.9c1.29 0 2.42.32 3.41.94a4.88 4.88 0 0 1 2.07 2.79c.08.25.29.38.6.4h3.48c.2 0 .3-.09.3-.26s-.02-.31-.05-.43a9.03 9.03 0 0 0-3.23-5.42c-1.72-1.4-3.91-2.11-6.58-2.11-3.22 0-5.83 1.06-7.85 3.18"/><path id="c" d="M94.3 38.34c-2.02 2.13-3.03 4.85-3.03 8.18s1 6.05 3.02 8.17c2.02 2.11 4.63 3.17 7.85 3.17 2.65 0 4.84-.7 6.58-2.11a8.91 8.91 0 0 0 3.27-5.85c0-.17-.1-.26-.3-.26h-3.46c-.32 0-.52.13-.6.38a5.01 5.01 0 0 1-2.09 2.8c-.98.63-2.11.94-3.4.94a6.05 6.05 0 0 1-4.68-1.88c-1.16-1.26-1.74-3.05-1.74-5.37 0-2.32.58-4.1 1.74-5.36a6.05 6.05 0 0 1 4.68-1.9c1.29 0 2.42.32 3.41.94a4.88 4.88 0 0 1 2.07 2.79c.09.25.29.38.6.4h3.48c.2 0 .3-.09.3-.26s-.02-.31-.05-.43a9.02 9.02 0 0 0-3.23-5.42c-1.72-1.4-3.91-2.11-6.58-2.11-3.22 0-5.83 1.06-7.85 3.18"/></defs><use fill="#050505" xlink:href="#a" transform="translate(-48 -29)"/><use fill="#050505" xlink:href="#b" transform="translate(-48 -29)"/><use fill="#050505" xlink:href="#c" transform="translate(-48 -29)"/></svg>